PathFileType	4	(X/Y/Z)	pose2sim_150-449.trc
DataRate	CameraRate	NumFrames	NumMarkers	Units	OrigDataRate	OrigDataStartFrame	OrigNumFrames
50	50	8	22	m	50	412	300
Frame#	Time	Hip			RHip			RKnee			RAnkle			RBigToe			RSmallToe			RHeel			LHip			LKnee			LAnkle			LBigToe			LSmallToe			LHeel			Neck			Head			Nose			RShoulder			RElbow			RWrist			LShoulder			LElbow			LWrist			
		X1	Y1	Z1	X2	Y2	Z2	X3	Y3	Z3	X4	Y4	Z4	X5	Y5	Z5	X6	Y6	Z6	X7	Y7	Z7	X8	Y8	Z8	X9	Y9	Z9	X10	Y10	Z10	X11	Y11	Z11	X12	Y12	Z12	X13	Y13	Z13	X14	Y14	Z14	X15	Y15	Z15	X16	Y16	Z16	X17	Y17	Z17	X18	Y18	Z18	X19	Y19	Z19	X20	Y20	Z20	X21	Y21	Z21	X22	Y22	Z22	
412	8.24	0.13575856073103396	0.9771885912389378	-0.03500280022379249	0.032771152807334544	0.9639317571241541	-0.035206949417436836	0.015816171488366653	0.5231866454288924	-0.06074713035696663	0.0029863655238335954	0.09768818438583603	-0.07899880720531126	0.009844105436899253	0.036813446195181676	0.07367160044918909	-0.04348451050362425	0.04235409945230593	0.03844338385923353	0.00954255364210208	0.05407057667130115	-0.11715293607871137	0.24136518391974748	0.9618453739597522	-0.06023841516603915	0.24044678907602363	0.5258066477658767	-0.1016983558582755	0.245741887631101	0.09135716317667807	-0.1094880766175414	0.27992164220056115	0.03634160223667099	0.08039459378655697	0.3239052299911005	0.03888006685298063	0.013492901116985439	0.2272488245377104	0.042080622964326776	-0.14599209368416344	0.14382132625219118	1.5809272977613347	-0.07384786847927466	0.13549533048073747	1.8234691331866666	-0.045423911663059945	0.14781712048557089	1.6958921360579404	0.10177092201770072	-0.011249127267947537	1.4749849486695419	-0.07470870981625728	-0.08436725899855088	1.2263927997255604	0.03149555561718743	-0.10254955054639632	1.2828868228259387	0.34424292529680167	0.30957820046364926	1.4793897887864724	-0.10497466694274854	0.38139763793686465	1.2285820214158147	-0.023967744592813107	0.47053435805884547	1.2718419549646653	0.264250050240034
413	8.26	0.13423651436005465	0.9814115682471778	-0.03626033176194848	0.033335979730229046	0.9711285012463345	-0.027231193128280984	0.013085772813283375	0.524989806575383	-0.058508739603041274	0.001118879282708045	0.09998300201482493	-0.08122033895482941	0.012703567221749734	0.03699897094517718	0.07528945231134833	-0.03915420500753609	0.0381774547367035	0.03573305159149452	0.011919275787853728	0.05481926766683284	-0.11861972080786293	0.24028240217532496	0.9673422464106902	-0.054468104827903104	0.24218411756681418	0.5274067955036696	-0.09700783994954347	0.24443824989717813	0.09177138406512693	-0.11048258938032138	0.2800998030846648	0.03807129076490367	0.08400467148433693	0.32430491046619103	0.038003864716405295	0.017762469416950772	0.2291822395334393	0.0423027193388918	-0.142381670268884	0.14406435523840477	1.58190406153981	-0.07361460903935828	0.13298945205788637	1.8242375618240552	-0.046590321638897765	0.14656445796084874	1.6980366656038455	0.10556407246243298	-0.010662951565222902	1.4772870931761481	-0.06761435156192104	-0.07779480548699219	1.227288104908595	0.03819189744670704	-0.0980104587551557	1.2980465215114927	0.32226787288770675	0.3083134887431392	1.4789370765078298	-0.10053843754209801	0.3785214235081984	1.229961651122854	-0.014581529695675131	0.45389506208380437	1.2855292749218608	0.2530552479516006
414	8.28	0.13501938355348142	0.9855002077588404	-0.034064075723128605	0.03271335724365067	0.9704098913977015	-0.029826911066381415	0.01732314318307182	0.5231676692439832	-0.06936321306004103	0.003247265252703235	0.08863901712499116	-0.08541295478572933	-0.005118729185475426	0.03531227259764158	0.10348423817257947	-0.052788606967548765	0.03540185650024357	0.05016440039810942	0.013192255854731265	0.03938414259560364	-0.1288267487092243	0.23745910036397477	0.9677898411910781	-0.046959983602460904	0.2415649412537369	0.5217293231018542	-0.09461095184051013	0.24679289830744292	0.08816192380314038	-0.10507512598463269	0.28596890927347063	0.035151958478958106	0.09261114711631444	0.3241361702038012	0.03166604580926543	0.02933766562579746	0.2270107172427276	0.03773922379590373	-0.13979297286691356	0.14440998883217135	1.579231022220129	-0.0767856902317034	0.13812761860208123	1.8215144152543732	-0.05647681438754767	0.13869220991604067	1.7001276950251265	0.07198291172141452	-0.018862635928230554	1.4747981652017246	-0.06558027166567007	-0.07491275558513762	1.2161726208903316	0.06457843452587404	-0.10528434450437019	1.3060760918462289	0.31738658352403465	0.3061705492250003	1.4774562952075814	-0.0952996769176966	0.3747663066732442	1.2301515944468733	0.007356881097015114	0.4650602981795203	1.3173597444447251	0.2636953987595613
415	8.3	0.13805240264446042	0.9823327183647891	-0.03744972050787715	0.0332063879079852	0.9687404914934166	-0.03433964991268963	0.014671039597185149	0.5237268345479953	-0.06387616160093434	0.0019147291598951692	0.09661616561857188	-0.08005586733972055	0.007290825530379739	0.03605498279142414	0.08035104207902109	-0.04214631192139897	0.03988285545960193	0.040414342141008	0.011076306406287763	0.05302121365718779	-0.11747843127947762	0.24245969883601406	0.9633455582034416	-0.05852637122403873	0.2428439011298255	0.5260111156948025	-0.10181351330768774	0.24529806804350884	0.09175712004971355	-0.10867225240225215	0.2821245273231543	0.03481875830633889	0.07931581073675588	0.32497167312806186	0.0381899690742684	0.012027238226386397	0.2285976824813967	0.04565762368275859	-0.14252247211103156	0.14758893407369728	1.5796725274679844	-0.07057530568161374	0.13610085225403173	1.8248239976904241	-0.04188371213875689	0.14659610900424958	1.6940213257481878	0.10327024426611649	-0.011154995621445687	1.4752979548285916	-0.07059879849540386	-0.0746805615168622	1.2274031603126427	0.054241933468439946	-0.08911341516646315	1.3509774510663406	0.3244744938924725	0.3105300496749049	1.4782246944259119	-0.10818697148526388	0.3788070746362792	1.231746963869128	0.008758883996688458	0.44688854931391114	1.332914416963201	0.2634878414747261
416	8.32	0.13634880240499128	0.9805392578905786	-0.03820815816617227	0.033649541978976565	0.9688059508836832	-0.03067239899926155	0.015031891777512628	0.527038929068903	-0.06398263697243298	0.0022342333534752985	0.09540356868120559	-0.08300019785970002	0.012134421281997288	0.03770573052297014	0.07248245194871412	-0.038041808977712845	0.04016068087131271	0.03296054226533479	0.012921865094560312	0.05187874431508535	-0.11811582300255624	0.23900423835181325	0.9649007891011383	-0.05445523158422885	0.2423167901421004	0.5290079534288074	-0.10203392585953351	0.24792162318358082	0.09330480374671503	-0.10507048433965824	0.28123011489896066	0.03686249380840443	0.08350227864610674	0.3243641892982207	0.038428098478450856	0.01856890273051382	0.23211501580649863	0.04782382856963824	-0.14369405661200582	0.1460834592840132	1.578616493302177	-0.07323611693368018	0.13649530408683724	1.826524441518156	-0.04213346538614025	0.1466783977339945	1.6977794878476717	0.09064965989561635	-0.011547192771478037	1.4789351826418684	-0.06651485101311393	-0.07214051023616891	1.235003555717382	0.05621503290868151	-0.08747494300235666	1.3755896801021386	0.3141110835068886	0.30836841803673903	1.4802872369538942	-0.11025987912486705	0.37818531013226636	1.2401668960543761	0.019383913156268414	0.4431776045500645	1.3680352547095198	0.26071496598172605
417	8.34	0.13584028213072774	0.9810985979359226	-0.03858484944196683	0.03305972583107535	0.9680791706158114	-0.031230799817947675	0.01448542689092134	0.5260736761596339	-0.06060620071194363	0.0031829194609129434	0.09436391327952079	-0.08357671148947488	0.011126668722460188	0.0378925757899855	0.07080698376538441	-0.03650179337855371	0.03906303514694181	0.035542027347603984	0.013944537982012277	0.05090003193469809	-0.11889212473544664	0.2415359135529844	0.9654816824036582	-0.05336492001373081	0.24289549511189523	0.5284936462453481	-0.10242487204010901	0.24872455508095412	0.09255084248218536	-0.1047319349509513	0.2826810630765223	0.03724719087327072	0.08816476945512686	0.3272971722645824	0.037026831165050976	0.02196523726258237	0.23051811662340996	0.04671809295524077	-0.14037535276299004	0.14437213897131476	1.5786453037533514	-0.06812546166253255	0.1361198648970772	1.8259616387820654	-0.04002615264701667	0.1508914835578368	1.697210310211612	0.09141845248470747	-0.01188789597380925	1.4806087712177314	-0.06430136269024876	-0.07024695080382504	1.233727130676215	0.07120539981822063	-0.0862311105135075	1.388767754466555	0.30502322442666807	0.3066719794703416	1.4810821229623332	-0.10654005706858831	0.37790623377107097	1.2415719763173434	0.029261639751542723	0.4370460998158082	1.3868429613683269	0.2536753685047488
418	8.36	0.13542391073827584	0.9837966557620976	-0.038538746047825805	0.03449980126297057	0.968297772901408	-0.030127548059779238	0.01509106747535647	0.5214299974228558	-0.07085698959792154	0.0015546469503040104	0.08881834707330759	-0.07981838385507166	-8.940744669895023e-06	0.036670731603316326	0.10470707885988732	-0.04883755595952648	0.03644302671939054	0.052369206379970404	0.011774984125239925	0.04192787897651224	-0.12315460030245907	0.2407952117224359	0.9654997340724045	-0.04472692313977011	0.24202326077292713	0.5198165979455288	-0.09864230600725214	0.24471410862597762	0.08830755853607182	-0.11233717073136552	0.2894545323295694	0.034840604921534325	0.1000184004573873	0.32380913144938184	0.03128637718383944	0.027131562519720705	0.22370022093166375	0.03878822600482677	-0.14683751708933734	0.14507792021149205	1.579295707513328	-0.07844674078421635	0.13891739519354035	1.8219788928240255	-0.053560282387379934	0.14411712822602749	1.6970907669817172	0.08062017375148185	-0.016925305251134844	1.4782245876860807	-0.06494786149163308	-0.07203255348898407	1.2297074038747937	0.08824547617425756	-0.0945242684650267	1.4020339286648302	0.284635337026463	0.30648276491682247	1.48181589990292	-0.08960876968042687	0.37732809120337385	1.238780457747907	0.05611440747673426	0.4398513025088576	1.3945082769404151	0.24662843834771217
419	8.38	0.13709347206034592	0.9783537228856695	-0.03574129336396531	0.03381207732524172	0.9663981577731406	-0.028210547316684733	0.01345662545992563	0.5197062722489143	-0.05874524156539197	0.004234225154503357	0.0933997557762572	-0.07799664168319886	0.01336384880548933	0.03362447987923831	0.07768826371959733	-0.037426076389145566	0.03626862259356679	0.037972145317379566	0.01350583238692953	0.05123065271199168	-0.11245247900213098	0.2413177885016988	0.9639243250197729	-0.05362337182348334	0.24310312210568896	0.5248862277220246	-0.09942280788887667	0.2477384789847559	0.09290526200614048	-0.1013979578732129	0.2847082087899115	0.0346231109039466	0.08529711149801292	0.3290907734991473	0.03784998386040797	0.02002011668698673	0.23051702444055844	0.04717826620604807	-0.13788667234527846	0.14521911650693156	1.5792007985510106	-0.07155518032728263	0.13706885897504378	1.8211426065906775	-0.03655148785575726	0.15405835160012157	1.6932030812557968	0.10515602994790176	-0.013034652531664394	1.4811900104894802	-0.06443434070497715	-0.06748673268553951	1.2417311523700971	0.09728534446760959	-0.06454920740584584	1.4160117520394342	0.32916264917051713	0.30698643672513276	1.4828080887822817	-0.10407081868332427	0.38107481777950475	1.2534109825322672	0.045860923064897696	0.42267106935610244	1.4104466076323805	0.24572861173119184
